<?xml version="1.0" encoding="UTF-8" standalone="no"?>
<svg
   width="825" height="400"
   viewBox="0 0 825 400"
   xmlns="http://www.w3.org/2000/svg">
   
   <!-- Background -->
   <rect x="0" y="0" width="825" height="400" fill="white" stroke="black" stroke-width="2" />
   
   <!-- Rooms -->
   <rect id="o12" width="105" height="90" fill="lightgray" stroke="black" stroke-width="2" />
   <rect id="o13" x="105" width="118" height="90" fill="lightgray" stroke="black" stroke-width="2"/>
   <rect id="o14" x="223" width="118" height="90" fill="lightgray" stroke="black" stroke-width="2"/>
   <rect id="o15" x="341" width="102" height="90" fill="lightgray" stroke="black" stroke-width="2"/>
   <rect id="o16" x="443" width="101" height="90" fill="lightgray" stroke="black" stroke-width="2"/>
   <rect id="o17" x="544" width="101" height="90" fill="lightgray" stroke="black" stroke-width="2"/>
   <rect id="o18" x="645" width="90" height="90" fill="lightgray" stroke="black" stroke-width="2"/>
   <rect id="o19" x="735" width="90" height="90" fill="lightgray" stroke="black" stroke-width="2"/>
   
   <rect id="e33e32e31e30" x="105" y="125" width="348" height="145" fill="lightgray" stroke="black" stroke-width="2"/>
   <rect id="o29" x="453" y="125" width="80" height="145" fill="lightgray" stroke="black" stroke-width="2"/>

   <rect id="o11" y="90" width="40" height="60" fill="lightgray" stroke="black" stroke-width="2"/>
   <rect id="o10" y="150" width="40" height="80" fill="lightgray" stroke="black" stroke-width="2"/>
   <rect id="o09" y="230" width="40" height="80" fill="lightgray" stroke="black" stroke-width="2"/>

   <rect id="o08" y="310" width="147" height="90" fill="lightgray" stroke="black" stroke-width="2"/>
   <rect id="o07" x="147" y="310" width="140" height="90" fill="lightgray" stroke="black" stroke-width="2"/>
   <rect id="o06" x="284" y="310" width="55" height="90" fill="lightgray" stroke="black" stroke-width="2"/>
   <rect id="o05" x="339" y="310" width="95" height="90" fill="lightgray" stroke="black" stroke-width="2"/>
   <rect id="o04" x="434" y="310" width="105" height="90" fill="lightgray" stroke="black" stroke-width="2"/>
   <rect id="o03" x="539" y="310" width="186" height="90" fill="lightgray" stroke="black" stroke-width="2"/>

   <rect id="o20" x="755" y="125" width="80" height="70" fill="lightgray" stroke="black" stroke-width="2"/>
   <rect id="o21" x="755" y="195" width="80" height="60" fill="lightgray" stroke="black" stroke-width="2"/>
   <rect id="o22" x="755" y="255" width="80" height="50" fill="lightgray" stroke="black" stroke-width="2"/>
   <rect id="o23" x="755" y="305" width="80" height="50" fill="lightgray" stroke="black" stroke-width="2"/>
   <rect id="o23" x="755" y="355" width="80" height="45" fill="lightgray" stroke="black" stroke-width="2"/>
   
   <rect id="o33" x="645" y="125" width="80" height="36" fill="lightgray" stroke="black" stroke-width="2"/>
   <rect id="o34" x="645" y="161" width="80" height="36" fill="lightgray" stroke="black" stroke-width="2"/>
   <rect id="o25" x="685" y="197" width="2" height="73" fill="black" stroke="black" stroke-width="2"/>

   <rect id="oStairsEntrance" x="75" y="125" width="30" height="145" fill="lightgray" stroke="black" stroke-width="2"/>
   <rect id="oStairsBuffet" x="533" y="125" width="70" height="45" fill="lightgray" stroke="black" stroke-width="2"/>
   <rect id="oWc" x="533" y="170" width="70" height="100" fill="lightgray" stroke="black" stroke-width="2"/>
   
</svg>
